# AST/ASF file generated using VICON BodyLanguage
# -----------------------------------------------
:version 1.10
:name VICON
:units
  mass 1.0
  length 0.45
  angle deg
:documentation
   .ast/.asf automatically generated from VICON data using
   VICON BodyBuilder and BodyLanguage model FoxedUp or BRILLIANT.MOD
:root
   order TX TY TZ RX RY RZ
   axis XYZ
   position 0 0 0  
   orientation 0 0 0 
:bonedata
  begin
     id 1 
     name lhipjoint
     direction 0.561001 -0.76473 0.316963 
     length 2.4722 
     axis 0 0 0  XYZ
  end
  begin
     id 2 
     name lfemur
     direction 0.34202 -0.939693 0  
     length 7.59403  
     axis 0 0 20  XYZ
    dof rx ry rz
    limits (-160.0 20.0)
           (-70.0 70.0)
           (-60.0 70.0)
  end
  begin
     id 3 
     name ltibia
     direction 0.34202 -0.939693 0   
     length 7.89655   
     axis 0 0 20   XYZ
    dof rx
    limits (-10.0 170.0)
  end
  begin
     id 4 
     name lfoot
     direction 0.061296 -0.168409 0.98381   
     length 2.73287   
     axis -90 7.62852e-016 20   XYZ
    dof rx rz
    limits (-45.0 90.0)
           (-70.0 20.0)
  end
  begin
     id 5 
     name ltoes
     direction 1.53547e-011 -4.21984e-011 1   
     length 1.37057   
     axis -90 7.62852e-016 20   XYZ
    dof rx
    limits (-90.0 20.0)
  end
  begin
     id 6 
     name rhipjoint
     direction -0.559611 -0.765599 0.317323   
     length 2.46939  
     axis 0 0 0  XYZ 
  end
  begin
     id 7 
     name rfemur
     direction -0.34202 -0.939693 0   
     length 7.53712   
     axis 0 0 -20   XYZ
    dof rx ry rz
    limits (-160.0 20.0)
           (-70.0 70.0)
           (-70.0 60.0)
  end
  begin
     id 8 
     name rtibia
     direction -0.34202 -0.939693 0   
     length 8.12549   
     axis 0 0 -20   XYZ
    dof rx
    limits (-10.0 170.0)
 end
 begin
     id 9 
     name rfoot
     direction -0.066984 -0.184037 0.980634   
     length 2.67541  
     axis -90 -7.62852e-016 -20   XYZ
    dof rx rz
    limits (-45.0 90.0)
           (-20.0 70.0)
  end
  begin
     id 10 
     name rtoes
     direction -1.53549e-011 -4.21786e-011 1   
     length 1.34085   
     axis -90 -7.62852e-016 -20   XYZ
    dof rx
    limits (-90.0 20.0)
  end
  begin
     id 11 
     name lowerback
     direction -0.0522728 0.992594 -0.109658   
     length 2.05633   
     axis 0 0 0   XYZ
    dof rx ry rz
    limits (-20.0 45.0)
           (-30.0 30.0)
           (-30.0 30.0)
  end
  begin
     id 12 
     name upperback
     direction 0.00589338 0.999977 0.00335704   
     length 2.05845   
     axis 0 0 0   XYZ
    dof rx ry rz
    limits (-20.0 45.0)
           (-30.0 30.0)
           (-30.0 30.0)
  end
  begin
     id 13 
     name thorax
     direction 0.0292928 0.998059 0.0549487   
     length 2.09281   
     axis 0 0 0   XYZ
    dof rx ry rz
    limits (-20.0 45.0)
           (-30.0 30.0)
           (-30.0 30.0)
  end
  begin
     id 14 
     name lowerneck
     direction 0.0356368 0.980775 0.191858   
     length 1.84767   
     axis 0 0 0   XYZ
    dof rx ry rz
    limits (-20.0 45.0)
           (-30.0 30.0)
           (-30.0 30.0)
  end
  begin
     id 15 
     name upperneck
     direction -0.0227605 0.98931 -0.14404   
     length 1.89582   
     axis 0 0 0   XYZ
    dof rx ry rz
    limits (-20.0 45.0)
           (-30.0 30.0)
           (-30.0 30.0)
  end
  begin
     id 16
     name head
     direction -0.00932985 0.997511 -0.0698904  
     length 1.90213  
     axis 0 0 0   XYZ
    dof rx ry rz
    limits (-20.0 45.0)
           (-30.0 30.0)
           (-30.0 30.0)
  end
  begin
     id 17 
     name lclavicle
     direction 0.873442 0.479511 0.0846686  
     length 3.41193  
     axis 0 0 0   XYZ
    dof ry rz
    limits (-20.0 10.0)
           (0.0 20.0)
  end
  begin
     id 18 
     name lhumerus
     direction 1 -4.4897e-011 -5.62117e-018   
     length 5.59864   
     axis 180 -30 -90   XYZ
    dof rx ry rz
    limits (-60.0 90.0)
           (-90.0 90.0)
           (-90.0 90.0)
  end
  begin
     id 19
     name lradius
     direction 1 -4.48966e-011 -6.26295e-027   
     length 3.59542   
     axis 180 -30 -90   XYZ
    dof rx
    limits (-10.0 170.0)
  end
  begin
     id 20
     name lwrist
     direction 1 -4.48947e-011 -1.74096e-026   
     length 1.79771   
     axis 1.04567e-014 90 90   XYZ
    dof ry
    limits (-180.0 0.0)
 end
  begin
     id 21 
     name lhand
     direction 1 -4.49085e-011 -3.48469e-026   
     length 0.572014   
     axis 2.22196e-014 90 90   XYZ
    dof rx rz
    limits (-90.0 90.0)
           (-45.0 45.0)
  end
  begin
     id 22 
     name lfingers
     direction 1 -4.48884e-011 -6.96135e-026   
     length 0.461173   
     axis 4.44383e-014 90 90   XYZ
    dof rx
    limits (0.0 90.0)
  end
  begin
     id 23
     name lthumb
     direction 0.707107 -6.34976e-011 0.707107   
     length 0.662154   
     axis -90 45 -5.4397e-014   XYZ
    dof rx rz
    limits (-45.0 45.0)
           (-45.0 45.0)
  end
  begin
     id 24 
     name rclavicle
     direction -0.890242 0.443271 0.104786   
     length 3.46753  
     axis 0 0 0   XYZ 
    dof ry rz
    limits (-10.0 20.0)
           (-20.0 0.0)
  end
  begin
     id 25 
     name rhumerus
     direction -1 -4.48963e-011 -5.41723e-018  
     length 5.8094   
     axis 180 30 90   XYZ
    dof rx ry rz
    limits (-90.0 60.0)
           (-90.0 90.0)
           (-90.0 90.0)
  end
  begin
     id 26 
     name rradius
     direction -1 -4.48958e-011 -6.51059e-027   
     length 3.66953   
     axis 180 30 90   XYZ
    dof rx
    limits (-10.0 170.0)
  end
  begin
     id 27 
     name rwrist
     direction -1 -4.48975e-011 -1.74124e-026   
     length 1.83476   
     axis 1.04567e-014 -90 -90   XYZ
    dof ry
    limits (-180.0 0.0)
  end
  begin
     id 28
     name rhand
     direction -1 -4.49013e-011 -3.48326e-026   
     length 0.57843   
     axis 2.22196e-014 -90 -90   XYZ
    dof rx rz
    limits (-90.0 90.0)
           (-45.0 45.0)
  end
  begin
     id 29
     name rfingers
     direction -1 -4.49023e-011 -6.9669e-026   
     length 0.466345   
     axis 4.44383e-014 -90 -90   XYZ
    dof rx
    limits (0.0 90.0)
  end
  begin
     id 30
     name rthumb
     direction -0.707107 -6.34926e-011 0.707107   
     length 0.669581   
     axis -90 -45 5.4397e-014   XYZ
    dof rx rz
    limits (-45.0 45.0)
           (-45.0 45.0)
  end
:hierarchy
  begin
    root lhipjoint rhipjoint lowerback
    lhipjoint lfemur
    lfemur ltibia
    ltibia lfoot
    lfoot ltoes
    rhipjoint rfemur
    rfemur rtibia
    rtibia rfoot
    rfoot rtoes
    lowerback upperback
    upperback thorax
    thorax lowerneck lclavicle rclavicle
    lowerneck upperneck
    upperneck head
    lclavicle lhumerus
    lhumerus lradius
    lradius lwrist
    lwrist lhand lthumb
    lhand lfingers
    rclavicle rhumerus
    rhumerus rradius
    rradius rwrist
    rwrist rhand rthumb
    rhand rfingers
  end

#!OML:ASF H:\SkateBoarding\Project 1\Capture day 1\Session 1\Skater.ASF
:FULLY-SPECIFIED
:DEGREES
212
root 6.48669 19.2337 52.8136 -4.09749 25.9887 -8.93952
lowerback 12.6711 4.38502 -6.99008
upperback 2.2679 4.66436 -4.62634
thorax -4.85859 2.3897 -1.74048
lowerneck -13.3144 -7.36727 -2.26771
upperneck 42.1276 -13.1664 7.20034
head 19.1258 -4.5216 1.31132
rclavicle 4.29375e-014 -1.27222e-014
rhumerus -15.9676 20.5063 -83.9387
rradius 46.9014
rwrist -11.785
rhand -39.1347 -4.98715
rfingers 7.12502
rthumb -12.1335 -34.6153
lclavicle 4.29375e-014 -1.27222e-014
lhumerus -27.6887 12.4985 36.4934
lradius 47.3072
lwrist 43.1294
lhand -34.8627 24.4545
lfingers 7.12502
lthumb -8.01229 54.2826
rfemur -25.9862 -1.29371 23.3346
rtibia 27.7153
rfoot -16.3641 -7.79069
rtoes -7.50806
lfemur -23.5618 -13.8165 -0.41599
ltibia 41.2138
lfoot -35.649 17.284
ltoes -22.6
213
root 6.25778 19.2484 53.0955 -4.09673 25.9328 -9.03998
lowerback 12.6429 4.34378 -6.94269
upperback 2.21147 4.61928 -4.50718
thorax -4.90839 2.36814 -1.63382
lowerneck -13.1885 -7.50611 -2.40581
upperneck 42.2179 -13.2361 6.93728
head 19.129 -4.60951 1.20032
rclavicle 1.74931e-014 -2.22639e-014
rhumerus -16.0903 20.3349 -84.7223
rradius 46.5291
rwrist -11.706
rhand -38.8213 -4.82985
rfingers 7.12502
rthumb -11.8314 -34.4756
lclavicle 1.74931e-014 -2.22639e-014
lhumerus -28.3726 12.6303 37.269
lradius 46.7225
lwrist 42.9611
lhand -34.6629 24.4376
lfingers 7.12502
lthumb -7.81938 54.273
rfemur -25.6057 -1.34635 23.34
rtibia 27.3811
rfoot -16.414 -7.7547
rtoes -7.59038
lfemur -23.3693 -13.9494 -0.462497
ltibia 41.1586
lfoot -35.9266 17.2666
ltoes -22.5497
214
root 6.02734 19.2626 53.3775 -4.13914 25.7621 -9.13704
lowerback 12.5951 4.36486 -6.8865
upperback 2.19012 4.66267 -4.38466
thorax -4.91198 2.3889 -1.5406
lowerneck -13.1047 -7.68572 -2.65503
upperneck 42.2923 -13.3874 6.79292
head 19.1709 -4.73022 1.14615
rclavicle -5.64548e-014 -3.18055e-015
rhumerus -16.1475 20.1653 -85.3898
rradius 46.1454
rwrist -11.6801
rhand -38.4408 -4.64513
rfingers 7.12502
rthumb -11.4644 -34.3117
lclavicle -5.64548e-014 -3.18055e-015
lhumerus -29.0948 12.0712 38.2262
lradius 46.392
lwrist 43.1373
lhand -34.7715 24.533
lfingers 7.12502
lthumb -7.92422 54.3645
rfemur -25.1703 -1.20482 23.3413
rtibia 27.0347
rfoot -16.56 -7.6576
rtoes -6.94971
lfemur -23.0746 -14.0479 -0.501735
ltibia 41.1335
lfoot -36.1737 17.359
ltoes -22.4634
215
root 5.79961 19.2771 53.6554 -4.10169 25.5263 -9.182
lowerback 12.4925 4.36195 -6.85409
upperback 2.11579 4.67046 -4.31349
thorax -4.93827 2.3933 -1.48076
lowerneck -12.9838 -7.81172 -2.78738
upperneck 42.3957 -13.476 6.60551
head 19.1974 -4.81413 1.06644
rclavicle -1.57437e-013 3.18055e-014
rhumerus -16.2607 19.9798 -86.2338
rradius 45.7037
rwrist -11.5977
rhand -38.0158 -4.40809
rfingers 7.12502
rthumb -11.0545 -34.097
lclavicle -1.57437e-013 3.18055e-014
lhumerus -29.79 11.9097 39.0517
lradius 45.8372
lwrist 42.7336
lhand -34.623 24.6178
lfingers 7.12502
lthumb -7.7809 54.4547
rfemur -24.8265 -1.2331 23.3558
rtibia 26.7119
rfoot -16.4471 -7.69234
rtoes -7.24837
lfemur -22.8206 -14.158 -0.577567
ltibia 41.1361
lfoot -36.5403 17.3761
ltoes -22.2944
216
root 5.56754 19.2891 53.9337 -4.15564 25.1464 -9.33135
lowerback 12.3953 4.38201 -6.79621
upperback 2.08982 4.71723 -4.18703
thorax -4.92 2.41539 -1.38122
lowerneck -12.9425 -7.92449 -2.99821
upperneck 42.4714 -13.5331 6.44627
head 19.2379 -4.89301 1.01557
rclavicle 5.96354e-014 1.59028e-014
rhumerus -16.2403 19.9271 -87.033
rradius 45.1563
rwrist -11.4488
rhand -37.5625 -4.20924
rfingers 7.12502
rthumb -10.6173 -33.921
lclavicle 5.96354e-014 1.59028e-014
lhumerus -30.3968 12.0293 39.9044
lradius 45.1493
lwrist 42.0093
lhand -34.1056 24.5346
lfingers 7.12502
lthumb -7.2815 54.3893
rfemur -24.4006 -0.873906 23.4834
rtibia 26.3813
rfoot -16.6501 -7.62276
rtoes -7.15486
lfemur -22.461 -14.1548 -0.529336
ltibia 41.1516
lfoot -36.7935 17.5846
ltoes -22.4248
217
root 5.34201 19.3022 54.2168 -4.19238 24.5832 -9.35489
lowerback 12.1943 4.51057 -6.73224
upperback 2.08354 4.91687 -4.13665
thorax -4.82122 2.51111 -1.38181
lowerneck -12.8522 -8.0893 -3.305
upperneck 42.4894 -13.6994 6.43639
head 19.2708 -5.01418 1.03094
rclavicle -4.45278e-014 2.54444e-014
rhumerus -16.2977 19.584 -87.8674
rradius 44.6314
rwrist -11.1988
rhand -37.0875 -4.05472
rfingers 7.12502
rthumb -10.159 -33.7894
lclavicle -4.45278e-014 2.54444e-014
lhumerus -30.8483 12.1855 40.8078
lradius 44.4235
lwrist 40.9499
lhand -33.7044 24.2345
lfingers 7.12502
lthumb -6.8942 54.1022
rfemur -23.9457 -0.689867 23.5572
rtibia 26.072
rfoot -16.4834 -7.43708
rtoes -7.0374
lfemur -21.9391 -14.1826 -0.628599
ltibia 41.1811
lfoot -37.2489 17.815
ltoes -22.4877
218
root 5.10837 19.313 54.4911 -4.17965 24.1547 -9.41594
lowerback 12.0676 4.55387 -6.6928
upperback 2.02009 4.98844 -4.08935
thorax -4.82186 2.54619 -1.35917
lowerneck -12.7161 -8.19783 -3.43553
upperneck 42.5334 -13.7728 6.28438
head 19.2587 -5.091 0.97028
rclavicle -2.3059e-014 6.36111e-015
rhumerus -16.3277 19.2895 -88.7718
rradius 44.0048
rwrist -10.961
rhand -36.5986 -3.74616
rfingers 7.12502
rthumb -9.68736 -33.5034
lclavicle -2.3059e-014 6.36111e-015
lhumerus -31.3192 12.2517 41.6758
lradius 43.7168
lwrist 39.9515
lhand -33.2889 23.8514
lfingers 7.12502
lthumb -6.49311 53.7319
rfemur -23.5839 -0.518631 23.6707
rtibia 25.7824
rfoot -16.3996 -7.36053
rtoes -7.20631
lfemur -21.5832 -14.2388 -0.64286
ltibia 41.2187
lfoot -37.7832 17.9068
ltoes -22.2585
219
root 4.87569 19.3208 54.764 -4.12475 23.7409 -9.57792
lowerback 11.8558 4.58528 -6.47234
upperback 1.9416 5.07422 -4.0651
thorax -4.77436 2.58533 -1.45519
lowerneck -12.611 -8.30014 -3.52735
upperneck 42.5635 -13.8695 6.18178
head 19.252 -5.16326 0.920497
rclavicle -5.24792e-014 2.8625e-014
rhumerus -16.3503 18.7224 -89.7312
rradius 43.294
rwrist -10.432
rhand -36.1149 -3.33109
rfingers 7.12502
rthumb -9.22065 -33.1095
lclavicle -5.24792e-014 2.8625e-014
lhumerus -31.9865 12.2229 42.456
lradius 43.2747
lwrist 39.0214
lhand -32.878 23.2123
lfingers 7.12502
lthumb -6.0964 53.1045
rfemur -23.3249 -0.418542 23.9045
rtibia 25.5219
rfoot -16.3062 -7.21631
rtoes -7.20222
lfemur -21.3277 -14.265 -0.526662
ltibia 41.2788
lfoot -38.1238 18.1182
ltoes -22.3005
220
root 4.64335 19.3278 55.035 -3.9632 23.3286 -9.47706
lowerback 11.6564 4.61793 -6.52566
upperback 1.87334 5.12399 -4.08429
thorax -4.74078 2.61071 -1.44139
lowerneck -12.6285 -8.38333 -3.6055
upperneck 42.6799 -13.9147 5.99353
head 19.3169 -5.21603 0.832986
rclavicle -2.3059e-014 4.77083e-014
rhumerus -16.3002 18.3399 -90.6678
rradius 42.4958
rwrist -9.96655
rhand -35.7021 -2.99288
rfingers 7.12502
rthumb -8.82239 -32.7885
lclavicle -2.3059e-014 4.77083e-014
lhumerus -32.4184 12.4436 43.3092
lradius 42.5806
lwrist 37.8548
lhand -32.4337 22.5102
lfingers 7.12502
lthumb -5.66748 52.4144
rfemur -23.0884 -0.32205 23.8637
rtibia 25.3017
rfoot -16.258 -6.89278
rtoes -7.17018
lfemur -21.0383 -14.3563 -0.694136
ltibia 41.3192
lfoot -38.5949 18.3541
ltoes -22.3161
221
root 4.4095 19.3332 55.3073 -3.90675 22.8865 -9.60611
lowerback 11.4246 4.64596 -6.34753
upperback 1.79365 5.20039 -4.07226
thorax -4.68474 2.64584 -1.52305
lowerneck -12.4896 -8.47291 -3.734
upperneck 42.6942 -14.001 5.94052
head 19.3012 -5.28587 0.816682
rclavicle 3.89618e-014 9.54166e-015
rhumerus -16.2882 17.933 -91.6333
rradius 41.6771
rwrist -9.59547
rhand -35.2964 -2.58741
rfingers 7.12502
rthumb -8.4308 -32.3991
lclavicle 3.89618e-014 9.54166e-015
lhumerus -32.8807 12.6526 44.154
lradius 41.9026
lwrist 36.7514
lhand -32.1551 21.531
lfingers 7.12502
lthumb -5.39852 51.4422
rfemur -22.8366 -0.318881 24.1097
rtibia 25.0982
rfoot -16.0572 -6.60386
rtoes -7.24909
lfemur -20.7301 -14.4372 -0.603853
ltibia 41.3654
lfoot -39.1314 18.5902
ltoes -22.3746
222
root 4.17107 19.342 55.5793 -3.7743 22.45 -9.58402
lowerback 11.1808 4.71522 -6.33835
upperback 1.72611 5.31074 -4.09083
thorax -4.62159 2.69987 -1.54792
lowerneck -12.3837 -8.58201 -3.8864
upperneck 42.7116 -14.1019 5.86929
head 19.2983 -5.36582 0.790997
rclavicle 1.43125e-014 3.81667e-014
rhumerus -16.2057 17.3504 -92.5594
rradius 40.7648
rwrist -9.03378
rhand -34.9069 -2.23296
rfingers 7.12502
rthumb -8.05487 -32.0595
lclavicle 1.43125e-014 3.81667e-014
lhumerus -33.2913 12.8334 45.0524
lradius 41.2539
lwrist 35.6839
lhand -31.4623 20.3941
lfingers 7.12502
lthumb -4.72955 50.3214
rfemur -22.6301 0.00975922 24.1455
rtibia 24.921
rfoot -16.1631 -6.41665
rtoes -7.19886
lfemur -20.433 -14.5885 -0.644541
ltibia 41.3718
lfoot -39.7139 18.7793
ltoes -22.0726
